HIERARCHY
ROOT Hips
{
 OFFSET 0.000000 0.000000 0.000000
 CHANNELS 6 Xposition Yposition Zposition Yrotation Xrotation Zrotation
 JOINT Chest
 {
  OFFSET 0.000000 9.581000 -0.001100
  CHANNELS 3 Yrotation Xrotation Zrotation
  JOINT Chest2
  {
   OFFSET 0.000000 9.561100 0.002200
   CHANNELS 3 Yrotation Xrotation Zrotation
   JOINT Chest3
   {
    OFFSET 0.000000 9.521100 0.000000
    CHANNELS 3 Yrotation Xrotation Zrotation
    JOINT Chest4
    {
     OFFSET 0.000000 9.511400 0.000000
     CHANNELS 3 Yrotation Xrotation Zrotation
     JOINT Neck
     {
      OFFSET 0.000000 14.375100 0.000000
      CHANNELS 3 Yrotation Xrotation Zrotation
      JOINT Head
      {
       OFFSET 0.000000 8.901200 0.004600
       CHANNELS 3 Yrotation Xrotation Zrotation
       End Site
       {
        OFFSET 0.000000 16.962200 0.002400
       }
      }
     }
     JOINT RightCollar
     {
      OFFSET -2.920100 9.518800 0.000000
      CHANNELS 3 Yrotation Xrotation Zrotation
      JOINT RightShoulder
      {
       OFFSET -13.664500 0.000000 0.000000
       CHANNELS 3 Yrotation Xrotation Zrotation
       JOINT RightElbow
       {
        OFFSET 0.000000 -29.999200 0.000000
        CHANNELS 3 Yrotation Xrotation Zrotation
        JOINT RightWrist
        {
         OFFSET 0.000000 -24.253600 0.000000
         CHANNELS 3 Yrotation Xrotation Zrotation
         End Site
         {
          OFFSET 0.000000 -17.918900 0.000000
         }
        }
       }
      }
     }
     JOINT LeftCollar
     {
      OFFSET 2.920100 9.518800 0.000000
      CHANNELS 3 Yrotation Xrotation Zrotation
      JOINT LeftShoulder
      {
       OFFSET 13.664500 0.000000 0.000000
       CHANNELS 3 Yrotation Xrotation Zrotation
       JOINT LeftElbow
       {
        OFFSET 0.000000 -29.999200 0.000000
        CHANNELS 3 Yrotation Xrotation Zrotation
        JOINT LeftWrist
        {
         OFFSET 0.000000 -24.253600 0.000000
         CHANNELS 3 Yrotation Xrotation Zrotation
         End Site
         {
          OFFSET 0.000000 -17.918900 0.000000
         }
        }
       }
      }
     }
    }
   }
  }
 }
 JOINT RightHip
 {
  OFFSET -7.797300 0.005300 0.000500
  CHANNELS 3 Yrotation Xrotation Zrotation
  JOINT RightKnee
  {
   OFFSET 0.000000 -40.663400 -0.000500
   CHANNELS 3 Yrotation Xrotation Zrotation
   JOINT RightAnkle
   {
    OFFSET 0.000000 -39.523700 -0.000900
    CHANNELS 3 Yrotation Xrotation Zrotation
    JOINT RightToe
    {
     OFFSET 0.000000 -6.418000 14.485300
     CHANNELS 3 Yrotation Xrotation Zrotation
     End Site
     {
      OFFSET 0.000000 -1.465200 6.326400
     }
    }
   }
  }
 }
 JOINT LeftHip
 {
  OFFSET 7.797300 0.005300 0.000500
  CHANNELS 3 Yrotation Xrotation Zrotation
  JOINT LeftKnee
  {
   OFFSET 0.000000 -40.663400 -0.000500
   CHANNELS 3 Yrotation Xrotation Zrotation
   JOINT LeftAnkle
   {
    OFFSET 0.000000 -39.523700 -0.000900
    CHANNELS 3 Yrotation Xrotation Zrotation
    JOINT LeftToe
    {
     OFFSET 0.000000 -6.418000 14.485300
     CHANNELS 3 Yrotation Xrotation Zrotation
     End Site
     {
      OFFSET 0.000000 -1.465200 6.326400
     }
    }
   }
  }
 }
}
MOTION
Frames: 13
Frame Time: 0.008333
-2.312075 126.295104 22.648249 -166.371958 -25.352773 -2.139139 -4.682241 20.176026 0.913097 -0.600361 2.583483 0.207140 -1.011155 4.254725 0.332001 -4.001100 17.268170 0.890218 0.522251 16.364020 -1.237003 0.810022 -8.541943 -1.399299 -3.973385 -5.026693 -2.080004 -6.328334 -3.345175 -5.664515 -86.567853 -27.575208 110.947024 -13.306333 10.318317 12.957609 -3.774296 -5.866663 1.339701 3.030120 -7.421209 8.481280 173.319483 -76.236661 171.233077 -18.222033 -14.490616 23.240547 -3.484040 -62.553636 -0.629806 -44.607402 71.508639 -47.365479 30.330423 32.717411 25.287147 0.005753 -0.008847 0.002549 -4.398864 -51.226345 -6.182609 86.915289 79.309780 79.645597 -16.277856 -10.335983 -4.482458 0.001264 0.006804 0.000560
-2.312513 126.295256 22.646067 -166.374220 -25.348872 -2.141532 -4.692067 20.184954 0.914389 -0.601011 2.581022 0.208408 -1.012942 4.259691 0.331840 -3.996786 17.259992 0.889563 0.519647 16.360494 -1.237425 0.786634 -8.548527 -1.383829 -3.970196 -5.052081 -2.093687 -6.323279 -3.336325 -5.659234 -86.579333 -27.582693 110.951350 -13.296301 10.308111 12.948767 -3.778363 -5.882449 1.339286 3.004850 -7.431449 8.502479 173.272524 -76.247721 171.296598 -18.216319 -14.497498 23.187069 -3.558699 -62.550394 -0.583574 -44.482658 71.545051 -47.263142 30.324928 32.701964 25.279807 -0.000586 -0.004223 -0.000259 -4.414445 -51.232497 -6.182088 86.956759 79.312826 79.691146 -16.257367 -10.344845 -4.490341 0.000838 0.005998 0.000372
-2.312715 126.294780 22.644800 -166.378881 -25.337001 -2.142385 -4.694025 20.180643 0.916928 -0.618595 2.600458 0.211151 -1.000954 4.247177 0.330135 -3.994070 17.253499 0.889019 0.506718 16.358199 -1.231016 0.779656 -8.560388 -1.375199 -3.967545 -5.078178 -2.105084 -6.317184 -3.321162 -5.653894 -86.596446 -27.592544 110.964560 -13.233701 10.264952 12.972817 -3.783327 -5.899622 1.340050 2.983924 -7.433051 8.518616 173.246409 -76.249518 171.333300 -18.212587 -14.511377 23.148521 -3.591589 -62.554824 -0.562206 -44.427548 71.556191 -47.217905 30.352049 32.673138 25.252212 -0.001693 -0.006754 -0.000750 -4.426227 -51.250765 -6.178128 87.007007 79.302531 79.738700 -16.258422 -10.343585 -4.487753 -0.002458 0.002490 -0.001089
-2.311627 126.292635 22.646523 -166.399290 -25.302605 -2.138994 -4.682541 20.155339 0.923933 -0.614601 2.596248 0.210651 -1.001196 4.247731 0.330302 -4.008665 17.273363 0.894384 0.501287 16.343648 -1.228471 0.787479 -8.574653 -1.381999 -3.957145 -5.120215 -2.125446 -6.313749 -3.314279 -5.642081 -86.645203 -27.626277 111.006040 -13.239472 10.254011 12.975592 -3.791866 -5.944691 1.343273 2.988754 -7.418971 8.521087 173.309809 -76.222354 171.224898 -18.203652 -14.546062 23.134227 -3.612494 -62.579167 -0.532209 -44.385273 71.562161 -47.181213 30.300705 32.642416 25.207767 -0.011592 -0.011746 -0.005135 -4.430853 -51.293091 -6.167273 87.064259 79.289143 79.792429 -16.245061 -10.347013 -4.489797 -0.003011 -0.000729 -0.001334
-2.312348 126.292676 22.643560 -166.396959 -25.298645 -2.140467 -4.693577 20.170288 0.923439 -0.615405 2.597228 0.211144 -1.002324 4.249050 0.331061 -4.012599 17.275319 0.896131 0.494493 16.328109 -1.220339 0.793173 -8.586794 -1.388124 -3.952610 -5.160028 -2.146860 -6.312570 -3.320592 -5.625325 -86.629968 -27.630738 110.985528 -13.223426 10.227227 13.006866 -3.808954 -5.987658 1.356908 3.013997 -7.399842 8.508800 173.326885 -76.212501 171.179786 -18.203545 -14.574979 23.139722 -3.625952 -62.576689 -0.524741 -44.431365 71.604030 -47.223980 30.192807 32.565738 25.117405 -0.012085 -0.005904 -0.005354 -4.443421 -51.302126 -6.168600 87.130662 79.263591 79.862276 -16.256893 -10.353002 -4.501027 -0.002137 -0.002811 -0.000947
-2.312839 126.292462 22.640923 -166.398165 -25.291021 -2.140371 -4.699521 20.182281 0.921844 -0.615470 2.597735 0.212043 -1.002686 4.249891 0.332388 -4.018586 17.290441 0.905232 0.489626 16.298243 -1.213570 0.780004 -8.604159 -1.372965 -3.946893 -5.215729 -2.175181 -6.311584 -3.314753 -5.607112 -86.638898 -27.634980 110.993395 -13.226212 10.218169 13.025693 -3.814413 -6.044117 1.361600 3.008039 -7.384869 8.511260 173.297065 -76.211599 171.198555 -18.202931 -14.610665 23.150012 -3.634407 -62.578518 -0.518080 -44.470177 71.626896 -47.261978 30.128320 32.518773 25.065331 -0.013904 -0.004455 -0.006160 -4.446937 -51.311738 -6.168341 87.144917 79.249475 79.885227 -16.283353 -10.352530 -4.510031 -0.001250 -0.001969 -0.000554
-2.310022 126.291263 22.639803 -166.408628 -25.268177 -2.152584 -4.700018 20.194222 0.939461 -0.608631 2.582140 0.211528 -1.002915 4.250405 0.333064 -4.022304 17.291917 0.906165 0.487493 16.284104 -1.200437 0.762091 -8.620787 -1.336147 -3.942312 -5.256889 -2.198311 -6.309972 -3.304517 -5.587248 -86.654829 -27.614764 111.009543 -13.212467 10.226753 13.035216 -3.829212 -6.089419 1.375038 2.995891 -7.367883 8.518348 173.237598 -76.216279 171.255571 -18.199576 -14.647668 23.165966 -3.641035 -62.569059 -0.477873 -44.507894 71.611505 -47.290042 30.093995 32.407349 24.969718 -0.008928 -0.006793 -0.003955 -4.462850 -51.342494 -6.147381 87.209571 79.229211 79.963137 -16.269290 -10.359486 -4.534608 0.004477 -0.005285 0.001983
-2.307728 126.288538 22.642027 -166.433766 -25.224478 -2.150154 -4.682383 20.164898 0.950365 -0.616327 2.597215 0.212591 -0.995088 4.237676 0.332541 -4.025748 17.285743 0.905706 0.488855 16.280322 -1.187749 0.757149 -8.628945 -1.321892 -3.935166 -5.278040 -2.210006 -6.308337 -3.297414 -5.577454 -86.655157 -27.611386 111.008808 -13.207038 10.221959 13.054082 -3.849677 -6.136023 1.395141 2.994408 -7.347009 8.523061 173.169568 -76.231059 171.334171 -18.186581 -14.693505 23.165425 -3.618324 -62.593026 -0.459399 -44.534969 71.594996 -47.308610 30.123025 32.288777 24.888472 0.002271 -0.023568 0.001006 -4.456386 -51.388936 -6.134296 87.235749 79.222925 79.995231 -16.270382 -10.365635 -4.543884 0.000060 -0.002104 0.000027
-2.307595 126.287302 22.641439 -166.442844 -25.201306 -2.145578 -4.681697 20.153631 0.950227 -0.613451 2.591339 0.211948 -1.000305 4.243143 0.333195 -4.027977 17.280600 0.906204 0.489305 16.279201 -1.179052 0.757827 -8.635111 -1.319192 -3.927633 -5.295409 -2.222950 -6.313463 -3.302912 -5.562484 -86.646592 -27.596103 111.010307 -13.193059 10.232053 13.042084 -3.849137 -6.155658 1.399088 2.965884 -7.352418 8.539461 173.105393 -76.248665 171.412159 -18.172260 -14.738245 23.161253 -3.598976 -62.604098 -0.460058 -44.629126 71.611119 -47.402957 30.096849 32.131117 24.808354 0.004725 -0.036192 0.002092 -4.444533 -51.414404 -6.140006 87.256669 79.220239 80.021209 -16.241713 -10.368309 -4.551401 0.005684 -0.003212 0.002518
-2.310983 126.287358 22.638681 -166.434396 -25.196689 -2.130954 -4.702033 20.157890 0.931862 -0.611340 2.587114 0.209200 -1.004268 4.247850 0.333400 -4.026058 17.272524 0.907692 0.486010 16.280293 -1.172817 0.757157 -8.641583 -1.316419 -3.933889 -5.321336 -2.235740 -6.318867 -3.293074 -5.548746 -86.629170 -27.588020 111.013851 -13.176062 10.226894 13.037532 -3.871902 -6.203205 1.417336 2.932450 -7.346818 8.581661 172.888376 -76.278177 171.645661 -18.165167 -14.771522 23.166812 -3.557729 -62.595919 -0.499216 -44.818602 71.670249 -47.619440 30.042522 31.860325 24.721267 -0.000612 -0.028194 -0.000271 -4.423879 -51.416062 -6.174297 87.241723 79.223490 80.010960 -16.234100 -10.371290 -4.553070 0.008287 -0.002992 0.003671
-2.311251 126.287591 22.635146 -166.426589 -25.192858 -2.135514 -4.715350 20.163767 0.935264 -0.611230 2.585945 0.208350 -1.005709 4.245729 0.333729 -4.026356 17.266997 0.906009 0.482100 16.279180 -1.166931 0.762641 -8.643182 -1.322556 -3.932435 -5.344854 -2.252003 -6.335872 -3.280025 -5.535466 -86.611078 -27.578099 111.020974 -13.131195 10.196768 12.988300 -3.887852 -6.238737 1.429589 2.938812 -7.326916 8.593311 172.772199 -76.281555 171.731122 -18.154705 -14.805893 23.171266 -3.471209 -62.547101 -0.542560 -44.961670 71.699086 -47.755727 29.978339 31.552621 24.614182 0.003342 -0.009117 0.001480 -4.426584 -51.414366 -6.179723 87.224073 79.231623 80.000732 -16.230801 -10.376734 -4.547654 0.005502 0.000600 0.002438
-2.311872 126.287385 22.632667 -166.423489 -25.183374 -2.135025 -4.722732 20.159026 0.934951 -0.613440 2.588186 0.211090 -1.006525 4.242684 0.333931 -4.031309 17.261125 0.907457 0.480973 16.277081 -1.167004 0.766470 -8.642371 -1.328602 -3.926507 -5.366051 -2.280031 -6.354697 -3.265692 -5.515517 -86.596046 -27.578937 111.030990 -13.095081 10.177286 12.942005 -3.897876 -6.264866 1.434244 2.953967 -7.304001 8.590573 172.712385 -76.277307 171.757427 -18.144006 -14.839393 23.166619 -3.407267 -62.520660 -0.579818 -45.040283 71.766003 -47.832111 29.905571 31.246819 24.480855 0.007673 -0.001988 0.003400 -4.426897 -51.421861 -6.185712 87.219388 79.243591 80.000738 -16.217085 -10.379881 -4.535402 0.006326 0.001134 0.002803
-2.312167 126.287268 22.629997 -166.420404 -25.175282 -2.137393 -4.730040 20.156226 0.936989 -0.618836 2.591284 0.213397 -1.016096 4.245123 0.337716 -4.030716 17.249858 0.907021 0.482233 16.269706 -1.169094 0.768428 -8.650161 -1.331204 -3.913594 -5.391297 -2.309268 -6.374896 -3.248553 -5.503030 -86.587451 -27.586860 111.043988 -13.074918 10.163681 12.903231 -3.891963 -6.278739 1.428161 2.956834 -7.310984 8.616119 172.542292 -76.278136 171.896596 -18.137445 -14.860307 23.158643 -3.349904 -62.490549 -0.608027 -45.086377 71.844865 -47.863320 29.764158 30.956105 24.307861 0.012734 0.006331 0.005643 -4.432372 -51.427321 -6.185464 87.207431 79.253861 79.991332 -16.205984 -10.382586 -4.534324 0.004798 0.001156 0.002126
